<svg width="208" height="37" viewBox="0 0 208 37" fill="none" xmlns="http://www.w3.org/2000/svg">
<path d="M10.6081 29.288C9.69611 29.288 8.62811 29.252 7.40411 29.18C4.59611 29.06 2.50811 29 1.14011 29C0.612109 28.352 0.348109 27.596 0.348109 26.732C1.16411 26.732 1.74011 26.6 2.07611 26.336C2.41211 26.048 2.58011 25.568 2.58011 24.896V7.976C2.58011 7.304 2.41211 6.836 2.07611 6.572C1.74011 6.284 1.16411 6.14 0.348109 6.14C0.348109 5.276 0.612109 4.52 1.14011 3.872C2.48411 3.872 4.56011 3.836 7.36811 3.764C8.61611 3.716 9.46811 3.692 9.92411 3.692C13.6921 3.692 16.3561 4.28 17.9161 5.456C19.4761 6.632 20.2561 8.06 20.2561 9.74C20.2561 11.132 19.8961 12.308 19.1761 13.268C18.4801 14.204 17.3161 15.008 15.6841 15.68C17.8201 16.112 19.3441 16.796 20.2561 17.732C21.1681 18.668 21.6241 20.072 21.6241 21.944C21.6241 26.84 17.9521 29.288 10.6081 29.288ZM9.60011 14.816C12.8161 14.816 14.4241 13.4 14.4241 10.568C14.4241 9.224 14.0521 8.18 13.3081 7.436C12.5881 6.692 11.4841 6.32 9.99611 6.32C9.32411 6.32 8.83211 6.368 8.52011 6.464V14.744C8.95211 14.792 9.31211 14.816 9.60011 14.816ZM10.0321 26.66C13.3921 26.66 15.0721 25.208 15.0721 22.304C15.0721 20.648 14.6521 19.424 13.8121 18.632C12.9721 17.816 11.6041 17.408 9.70811 17.408L8.52011 17.444V26.552C9.16811 26.624 9.67211 26.66 10.0321 26.66ZM41.7054 5.168C38.9214 8.696 37.0494 12.044 36.0894 15.212C35.1534 18.38 34.6854 21.548 34.6854 24.716V26.732C34.6854 27.5 34.3974 28.136 33.8214 28.64C33.2454 29.12 32.1294 29.36 30.4734 29.36C29.2734 29.36 28.2774 29.18 27.4854 28.82C27.7254 25.196 28.5774 21.728 30.0414 18.416C31.5294 15.104 33.8454 11.528 36.9894 7.688C34.9734 8.288 32.8974 8.588 30.7614 8.588C29.3694 8.588 28.3614 8.792 27.7374 9.2C27.1374 9.608 26.7054 10.352 26.4414 11.432H24.4254C23.9934 11.024 23.6334 10.508 23.3454 9.884C23.0574 9.236 22.9134 8.48 22.9134 7.616C22.9134 6.344 23.2854 5.348 24.0294 4.628C24.7734 3.884 25.9254 3.512 27.4854 3.512C27.9414 3.512 28.6014 3.584 29.4654 3.728C30.3534 3.848 30.9174 3.92 31.1574 3.944C33.9174 4.352 35.8974 4.556 37.0974 4.556C37.8894 4.556 38.4654 4.496 38.8254 4.376C39.1854 4.232 39.7134 3.908 40.4094 3.404L41.7054 5.168ZM79.885 29.396C79.333 29.396 78.661 29.36 77.869 29.288C75.301 29.096 73.045 29 71.101 29C70.573 28.328 70.309 27.56 70.309 26.696C71.101 26.696 71.665 26.564 72.001 26.3C72.361 26.012 72.541 25.532 72.541 24.86V7.94C72.541 7.292 72.361 6.836 72.001 6.572C71.665 6.284 71.101 6.14 70.309 6.14C70.309 5.228 70.573 4.472 71.101 3.872C72.925 3.872 74.569 3.824 76.033 3.728C77.497 3.632 78.361 3.572 78.625 3.548C79.441 3.476 80.029 3.44 80.389 3.44C83.053 3.44 85.285 3.992 87.085 5.096C88.909 6.2 90.253 7.7 91.117 9.596C92.005 11.468 92.449 13.568 92.449 15.896C92.449 18.464 91.993 20.768 91.081 22.808C90.193 24.824 88.813 26.432 86.941 27.632C85.069 28.808 82.717 29.396 79.885 29.396ZM79.597 26.408C81.661 26.408 83.245 25.628 84.349 24.068C85.477 22.484 86.041 19.94 86.041 16.436C86.041 13.052 85.441 10.52 84.241 8.84C83.065 7.16 81.421 6.32 79.309 6.32C78.901 6.32 78.613 6.344 78.445 6.392V26.336C78.685 26.384 79.069 26.408 79.597 26.408ZM104.94 25.328C106.452 25.328 107.856 24.848 109.152 23.888C109.344 24.08 109.512 24.368 109.656 24.752C109.8 25.136 109.872 25.472 109.872 25.76C109.872 26.192 109.584 26.696 109.008 27.272C108.432 27.824 107.628 28.304 106.596 28.712C105.588 29.12 104.448 29.324 103.176 29.324C101.4 29.324 99.8399 28.94 98.4959 28.172C97.1759 27.404 96.1559 26.288 95.4359 24.824C94.7159 23.36 94.3559 21.632 94.3559 19.64C94.3559 17.6 94.7399 15.812 95.5079 14.276C96.2999 12.74 97.3799 11.564 98.7479 10.748C100.116 9.908 101.664 9.488 103.392 9.488C105.576 9.488 107.316 10.124 108.612 11.396C109.908 12.668 110.556 14.432 110.556 16.688C110.556 17.744 110.388 18.584 110.052 19.208C109.716 19.808 109.116 20.108 108.252 20.108H100.476C100.62 23.588 102.108 25.328 104.94 25.328ZM103.176 11.972C102.432 11.972 101.808 12.392 101.304 13.232C100.8 14.048 100.524 15.428 100.476 17.372H104.112C104.496 17.372 104.748 17.24 104.868 16.976C104.988 16.712 105.048 16.304 105.048 15.752C105.048 14.336 104.88 13.352 104.544 12.8C104.208 12.248 103.752 11.972 103.176 11.972ZM114.514 5.96C114.514 5.36 114.334 4.916 113.974 4.628C113.638 4.316 113.002 4.16 112.066 4.16V2.72C112.93 2.24 114.022 1.832 115.342 1.496C116.662 1.16 117.73 0.991998 118.546 0.991998C119.122 0.991998 119.53 1.112 119.77 1.352C120.01 1.592 120.13 2.012 120.13 2.612V25.076C120.13 25.82 120.274 26.336 120.562 26.624C120.874 26.912 121.39 27.056 122.11 27.056C122.11 27.728 121.822 28.376 121.246 29H113.362C112.81 28.4 112.534 27.752 112.534 27.056C113.23 27.056 113.734 26.912 114.046 26.624C114.358 26.312 114.514 25.796 114.514 25.076V5.96ZM132.202 3.548C132.202 4.58 131.878 5.408 131.23 6.032C130.606 6.632 129.766 6.932 128.71 6.932C127.678 6.932 126.85 6.632 126.226 6.032C125.626 5.408 125.326 4.58 125.326 3.548C125.326 2.54 125.638 1.724 126.262 1.1C126.91 0.475998 127.75 0.163998 128.782 0.163998C129.814 0.163998 130.642 0.475998 131.266 1.1C131.89 1.724 132.202 2.54 132.202 3.548ZM131.518 25.112C131.518 25.808 131.686 26.312 132.022 26.624C132.382 26.912 132.922 27.056 133.642 27.056C133.642 27.8 133.366 28.448 132.814 29H124.678C124.126 28.448 123.85 27.8 123.85 27.056C124.57 27.056 125.086 26.912 125.398 26.624C125.734 26.312 125.902 25.796 125.902 25.076V14.636C125.902 13.964 125.734 13.484 125.398 13.196C125.086 12.908 124.462 12.764 123.526 12.764V11.18C124.102 10.82 125.074 10.448 126.442 10.064C127.834 9.656 129.01 9.452 129.97 9.452C130.522 9.452 130.918 9.584 131.158 9.848C131.398 10.088 131.518 10.508 131.518 11.108V25.112ZM142.877 19.316L144.533 25.616L146.189 19.316L147.593 14.42C147.689 14.036 147.737 13.748 147.737 13.556C147.737 13.052 147.569 12.68 147.233 12.44C146.921 12.176 146.465 12.044 145.865 12.044C145.865 11.06 146.093 10.34 146.549 9.884H153.533C154.013 10.364 154.253 11.084 154.253 12.044C153.653 12.044 153.197 12.188 152.885 12.476C152.573 12.764 152.309 13.244 152.093 13.916L148.349 25.4C147.941 26.816 147.485 27.812 146.981 28.388C146.477 28.964 145.709 29.252 144.677 29.252H140.933L135.245 13.916C134.981 13.22 134.717 12.74 134.453 12.476C134.189 12.188 133.757 12.044 133.157 12.044C133.157 11.108 133.409 10.388 133.913 9.884H142.121C142.385 10.148 142.589 10.484 142.733 10.892C142.877 11.276 142.949 11.66 142.949 12.044C142.445 12.044 142.037 12.188 141.725 12.476C141.413 12.74 141.257 13.136 141.257 13.664C141.257 13.832 141.305 14.084 141.401 14.42L142.877 19.316ZM164.741 25.328C166.253 25.328 167.657 24.848 168.953 23.888C169.145 24.08 169.313 24.368 169.457 24.752C169.601 25.136 169.673 25.472 169.673 25.76C169.673 26.192 169.385 26.696 168.809 27.272C168.233 27.824 167.429 28.304 166.397 28.712C165.389 29.12 164.249 29.324 162.977 29.324C161.201 29.324 159.641 28.94 158.297 28.172C156.977 27.404 155.957 26.288 155.237 24.824C154.517 23.36 154.157 21.632 154.157 19.64C154.157 17.6 154.541 15.812 155.309 14.276C156.101 12.74 157.181 11.564 158.549 10.748C159.917 9.908 161.465 9.488 163.193 9.488C165.377 9.488 167.117 10.124 168.413 11.396C169.709 12.668 170.357 14.432 170.357 16.688C170.357 17.744 170.189 18.584 169.853 19.208C169.517 19.808 168.917 20.108 168.053 20.108H160.277C160.421 23.588 161.909 25.328 164.741 25.328ZM162.977 11.972C162.233 11.972 161.609 12.392 161.105 13.232C160.601 14.048 160.325 15.428 160.277 17.372H163.913C164.297 17.372 164.549 17.24 164.669 16.976C164.789 16.712 164.849 16.304 164.849 15.752C164.849 14.336 164.681 13.352 164.345 12.8C164.009 12.248 163.553 11.972 162.977 11.972ZM184.539 9.452C185.619 9.452 186.411 9.728 186.915 10.28C187.419 10.832 187.671 11.588 187.671 12.548C187.671 13.58 187.395 14.42 186.843 15.068C186.315 15.716 185.595 16.04 184.683 16.04C183.891 16.04 183.243 15.812 182.739 15.356C182.259 14.9 182.019 14.36 182.019 13.736C182.019 13.352 182.055 13.052 182.127 12.836C181.263 13.052 180.531 13.424 179.931 13.952V24.752C179.931 25.352 180.015 25.808 180.183 26.12C180.351 26.432 180.675 26.672 181.155 26.84C181.659 26.984 182.403 27.056 183.387 27.056C183.387 27.488 183.339 27.86 183.243 28.172C183.147 28.46 182.967 28.736 182.703 29H173.091C172.539 28.448 172.263 27.8 172.263 27.056C172.959 27.056 173.451 26.912 173.739 26.624C174.051 26.312 174.207 25.796 174.207 25.076V14.672C174.207 14.024 174.027 13.568 173.667 13.304C173.331 13.04 172.719 12.908 171.831 12.908V11.288C172.623 10.832 173.667 10.436 174.963 10.1C176.283 9.74 177.303 9.56 178.023 9.56C178.599 9.56 179.007 9.764 179.247 10.172C179.487 10.58 179.607 11.396 179.607 12.62C180.039 11.804 180.723 11.072 181.659 10.424C182.595 9.776 183.555 9.452 184.539 9.452ZM206.938 9.884C207.418 10.388 207.658 11.12 207.658 12.08C207.082 12.08 206.626 12.224 206.29 12.512C205.954 12.8 205.678 13.28 205.462 13.952L201.358 26.732C200.278 30.236 199.126 32.756 197.902 34.292C196.678 35.828 195.142 36.596 193.294 36.596C191.854 36.596 190.75 36.296 189.982 35.696C189.214 35.096 188.83 34.34 188.83 33.428C188.83 32.852 188.962 32.336 189.226 31.88C189.514 31.424 189.874 31.1 190.306 30.908C190.954 31.676 191.914 32.06 193.186 32.06C193.954 32.06 194.71 31.688 195.454 30.944C196.198 30.2 196.81 29.108 197.29 27.668H194.338L188.794 14.204C188.746 14.06 188.626 13.76 188.434 13.304C188.242 12.848 188.002 12.536 187.714 12.368C187.426 12.176 187.054 12.08 186.598 12.08C186.598 11.144 186.85 10.412 187.354 9.884H195.85C196.426 10.508 196.714 11.24 196.714 12.08C195.61 12.08 195.058 12.632 195.058 13.736C195.058 14.168 195.118 14.564 195.238 14.924L198.586 24.68L200.962 14.456C201.034 14.12 201.07 13.832 201.07 13.592C201.07 12.584 200.482 12.08 199.306 12.08C199.306 11.096 199.534 10.364 199.99 9.884H206.938Z" fill="#1B1B1B"/>
<path d="M61.1965 17.012C61.1965 18.692 60.6805 20.048 59.6485 21.08C58.6165 22.088 57.2485 22.592 55.5445 22.592C53.8165 22.592 52.4365 22.088 51.4045 21.08C50.3965 20.048 49.8925 18.692 49.8925 17.012C49.8925 15.332 50.3965 13.988 51.4045 12.98C52.4365 11.972 53.8165 11.468 55.5445 11.468C57.2485 11.468 58.6165 11.972 59.6485 12.98C60.6805 13.988 61.1965 15.332 61.1965 17.012Z" fill="#FB9400"/>
</svg>
